<?xml version="1.0" encoding="UTF-8"?>
<svg width="213px" height="213px" viewBox="0 0 213 213" version="1.1" xmlns="http://www.w3.org/2000/svg" xmlns:xlink="http://www.w3.org/1999/xlink">
    <!-- Generator: Sketch 42 (36781) - http://www.bohemiancoding.com/sketch -->
    <title>Desktop HD</title>
    <desc>Created with Sketch.</desc>
    <defs></defs>
    <g id="Page-1" stroke="none" stroke-width="1" fill="none" fill-rule="evenodd">
        <g id="Desktop-HD" fill-rule="nonzero" fill="#FFFFFF">
            <g id="logo-civic-hall" transform="translate(37.000000, 62.000000)">
                <g id="Group">
                    <polygon id="Shape" points="39.9022764 89.3985366 39.9022764 72.7738211 17.1949593 72.7738211 17.1949593 89.3985366 14.5588618 89.3985366 14.5588618 53.9170732 17.1949593 53.9170732 17.1949593 70.3403252 39.9022764 70.3403252 39.9022764 53.9170732 42.538374 53.9170732 42.538374 89.3985366"></polygon>
                    <path d="M69.0473171,56.5531707 L59.6695935,77.0796748 L78.3738211,77.0796748 L69.0473171,56.5531707 L69.0473171,56.5531707 Z M84,89.3985366 L79.4892683,79.4619512 L58.5564228,79.4619512 L54.0445528,89.3985366 L51.3071545,89.3985366 L67.8305691,53.663252 L70.3653659,53.663252 L86.8887805,89.3985366 L84,89.3985366 L84,89.3985366 Z" id="Shape"></path>
                    <polygon id="Shape" points="95.6586992 89.3985366 95.6586992 53.9170732 98.2947967 53.9170732 98.2947967 86.9650407 108.810732 86.9650407 108.810732 89.3985366"></polygon>
                    <polygon id="Shape" points="123.131707 89.3985366 123.131707 53.9170732 125.767805 53.9170732 125.767805 86.9650407 136.282602 86.9650407 136.282602 89.3985366"></polygon>
                    <g id="Shape">
                        <path d="M0,18.4515447 L0,18.3502439 C0,8.31349593 7.50195122,0 17.7413008,0 C24.0777236,0 27.8793496,2.33219512 31.5284553,5.67739837 L29.6526829,7.60325203 C26.5601626,4.61203252 23.0123577,2.38113821 17.6900813,2.38113821 C9.17398374,2.38113821 2.73626016,9.32650407 2.73626016,18.2478049 L2.73626016,18.3491057 C2.73626016,27.3204878 9.27528455,34.3170732 17.7413008,34.3170732 C22.8609756,34.3170732 26.3586992,32.34 29.9577236,28.7921951 L31.7310569,30.5154472 C27.9806504,34.2157724 23.9252033,36.6993496 17.64,36.6993496 C7.50195122,36.7004878 0,28.640813 0,18.4515447 Z"></path>
                        <polygon points="40.6 0.607804878 43.2360976 0.607804878 43.2360976 36.0915447 40.6 36.0915447"></polygon>
                        <polygon points="52.36 0.607804878 55.3 0.607804878 69.1895935 33.2528455 83.1281301 0.607804878 85.916748 0.607804878 70.3039024 36.3453659 67.9717073 36.3453659"></polygon>
                        <polygon points="95.038374 0.607804878 97.6744715 0.607804878 97.6744715 36.0915447 95.038374 36.0915447"></polygon>
                        <path d="M108.267805,18.4515447 L108.267805,18.3502439 C108.267805,8.31349593 115.769756,0 126.009106,0 C132.345528,0 136.147154,2.33219512 139.797398,5.67739837 L137.921626,7.60325203 C134.829106,4.61203252 131.280163,2.38113821 125.957886,2.38113821 C117.441789,2.38113821 111.004065,9.32650407 111.004065,18.2478049 L111.004065,18.3491057 C111.004065,27.3204878 117.544228,34.3170732 126.009106,34.3170732 C131.12878,34.3170732 134.626504,32.34 138.225528,28.7921951 L140,30.5154472 C136.249593,34.2157724 132.194146,36.6993496 125.907805,36.6993496 C115.769756,36.7004878 108.267805,28.640813 108.267805,18.4515447 Z"></path>
                    </g>
                    <path d="M139.353496,45.9143089 L81.0338211,45.9143089 L81.0338211,45.3793496 L139.353496,45.3793496 L139.353496,45.9143089 Z M58.5404878,45.9143089 L0.220813008,45.9143089 L0.220813008,45.3793496 L58.541626,45.3793496 L58.541626,45.9143089 L58.5404878,45.9143089 Z" id="Shape"></path>
                    <path d="M72.1227642,47.4235772 L70.5372358,47.4235772 L70.1673171,49.5873171 L69.6130081,49.5873171 L69.9829268,47.4235772 L67.5869919,47.4235772 L67.2170732,49.5873171 L66.661626,49.5873171 L67.0315447,47.4235772 L65.6315447,47.4235772 L65.6315447,46.8795122 L67.1237398,46.8795122 L67.5869919,44.1489431 L66.0947967,44.1489431 L66.0947967,43.604878 L67.6803252,43.604878 L68.0502439,41.4878049 L68.6056911,41.4878049 L68.2471545,43.604878 L70.6430894,43.604878 L71.001626,41.4878049 L71.5570732,41.4878049 L71.1860163,43.604878 L72.5871545,43.604878 L72.5871545,44.1489431 L71.0949593,44.1489431 L70.6317073,46.8795122 L72.1250407,46.8795122 L72.1250407,47.4235772 L72.1227642,47.4235772 Z M67.6803252,46.8806504 L70.075122,46.8806504 L70.538374,44.1500813 L68.1435772,44.1500813 L67.6803252,46.8806504 Z" id="Shape"></path>
                </g>
            </g>
        </g>
    </g>
</svg>